<svg width="34" height="18" viewBox="0 0 34 18" fill="none" xmlns="http://www.w3.org/2000/svg">
<path d="M14.1946 6.0376V11.5166H12.696V8.44345L11.6951 9.92443H10.9107L9.81019 8.44345V11.5166H8.44043V6.0376H9.82189L11.4024 8.18589L12.819 6.0376H14.1946ZM14.6277 7.27857V6.0376H19.7438V7.27857H17.9526V11.5166H16.4248V7.27857H14.6277ZM25.3809 6.0376V11.5166H24.1224L21.5468 8.38492V11.5166H20.177V6.0376H21.5409L24.0053 9.05809V6.0376H25.3809Z" fill="black"/>
<path d="M16.8585 17.2415C12.4332 17.2415 8.25951 16.4161 5.11024 14.9117C1.81463 13.3371 0 11.1946 0 8.87073C0 6.54683 1.81463 4.40439 5.11024 2.82976C8.25951 1.32537 12.4332 0.5 16.8585 0.5C21.2839 0.5 25.4576 1.32537 28.6068 2.82976C31.9024 4.40439 33.7171 6.54683 33.7171 8.87073C33.7171 11.1946 31.9024 13.3371 28.6068 14.9117C25.4576 16.4161 21.2839 17.2415 16.8585 17.2415ZM16.8585 1.73512C12.6088 1.73512 8.62829 2.51951 5.64293 3.9478C2.8039 5.30585 1.23512 7.0561 1.23512 8.87659C1.23512 10.6971 2.79805 12.4473 5.64293 13.7995C8.62829 15.2278 12.6146 16.0122 16.8585 16.0122C21.1024 16.0122 25.0888 15.2278 28.0741 13.7995C30.9132 12.4473 32.4819 10.6912 32.4819 8.87659C32.4819 7.06195 30.919 5.30585 28.0741 3.95366C25.0888 2.51951 21.1083 1.73512 16.8585 1.73512Z" fill="black"/>
</svg>
